<svg width="1200" height="720" viewBox="0 0 1200 720" fill="none" xmlns="http://www.w3.org/2000/svg">
  <rect width="1200" height="720" rx="32" fill="#101113"/>
  <rect x="58" y="58" width="1084" height="604" rx="28" fill="url(#bg)"/>
  <circle cx="600" cy="338" r="168" fill="#C9A14A"/>
  <path d="M432 490C432 396.112 508.112 320 602 320C695.888 320 772 396.112 772 490V638H432V490Z" fill="#D7B476"/>
  <circle cx="602" cy="316" r="122" fill="#F6ECDD"/>
  <circle cx="564" cy="298" r="11" fill="#161718"/>
  <circle cx="640" cy="298" r="11" fill="#161718"/>
  <path d="M557 372C570.797 387.614 585.797 395 603 395C620.203 395 635.203 387.614 649 372" stroke="#161718" stroke-width="12" stroke-linecap="round"/>
  <circle cx="520" cy="334" r="12" fill="#D39A8A" fill-opacity="0.18"/>
  <circle cx="688" cy="348" r="11" fill="#D39A8A" fill-opacity="0.15"/>
  <path d="M490 206C523.281 184.097 560.615 173.145 602 173.145C643.385 173.145 680.719 184.097 714 206" stroke="#F6ECDD" stroke-opacity="0.8" stroke-width="14" stroke-linecap="round"/>
  <circle cx="914" cy="188" r="52" fill="#C9A14A" fill-opacity="0.16"/>
  <defs>
    <linearGradient id="bg" x1="600" y1="58" x2="600" y2="662" gradientUnits="userSpaceOnUse">
      <stop stop-color="#232427"/>
      <stop offset="1" stop-color="#121315"/>
    </linearGradient>
  </defs>
</svg>
