<svg width="1000" height="1000" viewBox="0 0 1000 1000" fill="none" xmlns="http://www.w3.org/2000/svg">
  <rect width="1000" height="1000" fill="#120E0A"/>
  <g opacity="0.9" stroke="#D4A64E" stroke-width="8">
    <path d="M100 0V1000"/>
    <path d="M300 0V1000"/>
    <path d="M500 0V1000"/>
    <path d="M700 0V1000"/>
    <path d="M900 0V1000"/>
    <path d="M0 100H1000"/>
    <path d="M0 300H1000"/>
    <path d="M0 500H1000"/>
    <path d="M0 700H1000"/>
    <path d="M0 900H1000"/>
  </g>
  <g opacity="0.5" fill="#8D5B3D">
    <path d="M100 100H300V300H100V100ZM700 100H900V300H700V100ZM100 700H300V900H100V700ZM700 700H900V900H700V700Z"/>
    <path d="M400 100H600V300H400V100ZM400 700H600V900H400V700Z"/>
    <path d="M100 400H300V600H100V400ZM700 400H900V600H700V400Z"/>
    <circle cx="500" cy="500" r="130"/>
  </g>
</svg>
