<svg width="900" height="1000" viewBox="0 0 900 1000" fill="none" xmlns="http://www.w3.org/2000/svg">
  <rect width="900" height="1000" rx="54" fill="#120E0A"/>
  <rect x="70" y="70" width="760" height="860" rx="40" fill="url(#panel)"/>
  <circle cx="450" cy="380" r="170" fill="#E6BC78" fill-opacity="0.18"/>
  <path d="M451 213C548.239 213 627 291.761 627 389C627 486.239 548.239 565 451 565C353.761 565 275 486.239 275 389C275 291.761 353.761 213 451 213Z" fill="#F4E6CA"/>
  <path d="M345 633C345 574.458 392.458 527 451 527C509.542 527 557 574.458 557 633V760H345V633Z" fill="#8D5B3D"/>
  <path d="M450 301C492.525 301 527 335.475 527 378C527 420.525 492.525 455 450 455C407.475 455 373 420.525 373 378C373 335.475 407.475 301 450 301Z" fill="#D49E55"/>
  <path d="M355 267C381.833 241.889 414.444 229.333 453 229.333C491.556 229.333 524.167 241.889 551 267" stroke="#1F5D56" stroke-width="16" stroke-linecap="round"/>
  <rect x="180" y="810" width="540" height="18" rx="9" fill="#FFFFFF" fill-opacity="0.08"/>
  <defs>
    <linearGradient id="panel" x1="450" y1="70" x2="450" y2="930" gradientUnits="userSpaceOnUse">
      <stop stop-color="#231A14"/>
      <stop offset="1" stop-color="#17120F"/>
    </linearGradient>
  </defs>
</svg>
